<?xml version="1.0" encoding="UTF-8" standalone="no"?>
<!-- Generator: Adobe Illustrator 21.0.0, SVG Export Plug-In . SVG Version: 6.00 Build 0)  -->

<svg
   xmlns:dc="http://purl.org/dc/elements/1.1/"
   xmlns:cc="http://creativecommons.org/ns#"
   xmlns:rdf="http://www.w3.org/1999/02/22-rdf-syntax-ns#"
   xmlns:svg="http://www.w3.org/2000/svg"
   xmlns="http://www.w3.org/2000/svg"
   xmlns:sodipodi="http://sodipodi.sourceforge.net/DTD/sodipodi-0.dtd"
   xmlns:inkscape="http://www.inkscape.org/namespaces/inkscape"
   version="1.1"
   id="Capa_1"
   x="0px"
   y="0px"
   viewBox="0 0 666.09996 102.30001"
   xml:space="preserve"
   inkscape:version="0.91 r13725"
   sodipodi:docname="marte.svg"
   width="666.09998"
   height="102.3"><metadata
     id="metadata31"><rdf:RDF><cc:Work
         rdf:about=""><dc:format>image/svg+xml</dc:format><dc:type
           rdf:resource="http://purl.org/dc/dcmitype/StillImage" /><dc:title></dc:title></cc:Work></rdf:RDF></metadata><defs
     id="defs29" /><sodipodi:namedview
     pagecolor="#ffffff"
     bordercolor="#666666"
     borderopacity="1"
     objecttolerance="10"
     gridtolerance="10"
     guidetolerance="10"
     inkscape:pageopacity="0"
     inkscape:pageshadow="2"
     inkscape:window-width="1366"
     inkscape:window-height="693"
     id="namedview27"
     showgrid="false"
     fit-margin-top="0"
     fit-margin-left="0"
     fit-margin-right="0"
     fit-margin-bottom="0"
     inkscape:zoom="0.34921011"
     inkscape:cx="332.05001"
     inkscape:cy="51.150006"
     inkscape:window-x="0"
     inkscape:window-y="24"
     inkscape:window-maximized="1"
     inkscape:current-layer="Capa_1" /><style
     type="text/css"
     id="style3">
	.st0{fill:#3C3C3B;}
</style><g
     id="g5"
     transform="translate(-88.9,-246.5)"><g
       id="XMLID_416_"><path
         class="st0"
         d="m 754.6,348.2 -66.8,0 0,-16.9 66.8,0 0,16.9 z"
         id="path8"
         inkscape:connector-curvature="0"
         style="fill:#3c3c3b" /></g><g
       id="XMLID_415_"><path
         class="st0"
         d="m 740.6,305.9 -66.8,0 0,-16.9 66.8,0 0,16.9 z"
         id="path11"
         inkscape:connector-curvature="0"
         style="fill:#3c3c3b" /></g><g
       id="XMLID_414_"><path
         class="st0"
         d="m 755,263.5 -66.8,0 0,-16.9 66.8,0 0,16.9 z"
         id="path14"
         inkscape:connector-curvature="0"
         style="fill:#3c3c3b" /></g><g
       id="XMLID_412_"><path
         class="st0"
         d="m 193.1,348.7 -19,0 0,-65.2 -33,51.2 -33.2,-51.1 0,65.1 -19,0 0,-102.1 17,0 35.3,55.2 35.2,-55.2 16.8,0 0,102.1 z"
         id="path17"
         inkscape:connector-curvature="0"
         style="fill:#3c3c3b" /></g><path
       class="st0"
       d="m 471.1,308.2 c 11,-5.1 17.7,-16.1 17.7,-28.9 0,-9.3 -3.3,-17.1 -9.8,-23.3 -6.5,-6.4 -14.3,-9.5 -23.7,-9.5 l -39.9,0 0,102.1 20,0 0,-35.6 16.2,0 21.4,35.6 22.7,0 -24.6,-40.4 z m -17.6,-13.2 -18,0 0,-30 19.5,0 c 8.1,0 14,6.2 14,14.7 0,9 -6.4,15.3 -15.5,15.3 z"
       id="path19"
       inkscape:connector-curvature="0"
       style="fill:#3c3c3b" /><g
       id="XMLID_397_"><path
         class="st0"
         d="m 596.7,348.7 -20,0 0,-83.8 -27.1,0 0,-18.3 74.2,0 0,18.3 -27.1,0 0,83.8 z"
         id="path22"
         inkscape:connector-curvature="0"
         style="fill:#3c3c3b" /></g><g
       id="XMLID_396_"><path
         class="st0"
         d="m 355.2,348.7 -21.2,0 -7.9,-19.2 -7.3,-19 -14.5,-35.5 -14.8,36.3 -7,18.2 -7.9,19.3 -21.2,0 42.6,-102.2 16.6,0 42.6,102.1 z"
         id="path25"
         inkscape:connector-curvature="0"
         style="fill:#3c3c3b" /></g></g></svg>